<?xml version="1.0" encoding="utf-8"?>
<!-- Generator: Adobe Illustrator 23.1.1, SVG Export Plug-In . SVG Version: 6.00 Build 0)  -->
<svg version="1.1" id="Layer_1" xmlns="http://www.w3.org/2000/svg" xmlns:xlink="http://www.w3.org/1999/xlink" x="0px" y="0px"
	 viewBox="0 0 1000 1000" style="enable-background:new 0 0 1000 1000;" xml:space="preserve">
<style type="text/css">
	.st0{fill:#FAF067;}
</style>
<g>
	<path class="st0" d="M500,0C223.86,0,0,223.86,0,500s223.86,500,500,500c276.15,0,500-223.86,500-500S776.14,0,500,0z
		 M556.49,738.24c-26.43,12.34-58.54,18.51-96.3,18.51c-27.19,0-51.74-3.53-73.64-10.57c-21.9-7.05-40.54-17.11-55.89-30.21
		c-15.37-13.09-27.19-28.7-35.5-46.83c-8.31-18.13-12.47-38.52-12.47-61.18c0-46.22,19.63-84.28,58.84-114.19l50.14,51.13
		c-0.83,0.88-1.66,1.74-2.47,2.64c-13.6,15.11-20.39,34.49-20.39,58.16c0,28.21,9.31,49.35,27.94,63.44
		c18.62,14.1,43.3,21.15,74.02,21.15c19.8,0,37.69-3.35,53.67-9.99l48.62,49.59C567.84,732.73,562.33,735.52,556.49,738.24z
		 M676.8,756.84l-22.08-22.19L391.56,464.58c-15.48-17.32-20.28-26.93-29.89-46.14c-9.12-18.23-12.51-39.09-12.51-59.75
		c0-17.62,3.27-33.61,9.82-47.96c6.53-14.35,15.86-26.55,27.94-36.63c12.09-10.07,26.44-17.75,43.05-23.04
		c16.62-5.29,35-7.93,55.14-7.93c18.62,0,36,2.77,52.12,8.31c16.11,5.54,29.95,13.35,41.54,23.42c11.58,10.08,20.78,21.9,27.58,35.5
		c6.8,13.6,10.2,28.7,10.2,45.32c0,25.69-7.18,47.34-21.53,64.96c-10.28,12.63-22.18,23.32-35.69,32.07
		c-0.45,0.29-43-47.37-43-47.37s0.61-0.61,0.91-0.91c3.43-3.54,6.57-7.45,9.43-11.73c7.05-10.58,10.58-22.4,10.58-35.5
		c0-15.11-5.04-27.69-15.1-37.77c-10.08-10.07-22.92-15.1-38.52-15.1c-17.64,0-30.72,4.79-39.28,14.35
		c-8.57,9.57-12.84,22.17-12.84,37.77c0,18.63,5.16,36,15.49,52.12c10.31,16.12,26.06,34.74,47.2,55.89l121.61,124.63
		c7.05-11.58,14.09-25.55,21.15-41.92c7.05-16.36,13.33-32.1,18.88-47.21l67.22,27.19c-7.55,21.65-16.62,42.8-27.19,63.45
		c-10.57,20.65-20.14,37.51-28.7,50.61l114.13,115.68L676.8,756.84z"/>
</g>
</svg>
