<?xml version="1.0" encoding="utf-8"?>
<!-- Generator: Adobe Illustrator 24.0.2, SVG Export Plug-In . SVG Version: 6.00 Build 0)  -->
<svg version="1.1" id="Layer_1" xmlns="http://www.w3.org/2000/svg" xmlns:xlink="http://www.w3.org/1999/xlink" x="0px" y="0px"
	 viewBox="0 0 1000 1000" style="enable-background:new 0 0 1000 1000;" xml:space="preserve">
<style type="text/css">
	.st0{fill:#FFFFFF;}
	.st1{fill:#1E384B;}
</style>
<ellipse class="st0" cx="500" cy="500" rx="382.1" ry="397.7"/>
<g>
	<path class="st1" d="M500,0C223.9,0,0,223.9,0,500s223.9,500,500,500c276.2,0,500-223.9,500-500S776.1,0,500,0z M556.5,738.2
		c-26.4,12.3-58.5,18.5-96.3,18.5c-27.2,0-51.7-3.5-73.6-10.6c-21.9-7-40.5-17.1-55.9-30.2c-15.4-13.1-27.2-28.7-35.5-46.8
		s-12.5-38.5-12.5-61.2c0-46.2,19.6-84.3,58.8-114.2l50.1,51.1c-0.8,0.9-1.7,1.7-2.5,2.6c-13.6,15.1-20.4,34.5-20.4,58.2
		c0,28.2,9.3,49.3,27.9,63.4c18.6,14.1,43.3,21.2,74,21.2c19.8,0,37.7-3.3,53.7-10l48.6,49.6C567.8,732.7,562.3,735.5,556.5,738.2z
		 M676.8,756.8l-22.1-22.2L391.6,464.6c-15.5-17.3-20.3-26.9-29.9-46.1c-9.1-18.2-12.5-39.1-12.5-59.8c0-17.6,3.3-33.6,9.8-48
		c6.5-14.4,15.9-26.5,27.9-36.6c12.1-10.1,26.4-17.8,43-23c16.6-5.3,35-7.9,55.1-7.9c18.6,0,36,2.8,52.1,8.3
		c16.1,5.5,30,13.4,41.5,23.4c11.6,10.1,20.8,21.9,27.6,35.5s10.2,28.7,10.2,45.3c0,25.7-7.2,47.3-21.5,65
		c-10.3,12.6-22.2,23.3-35.7,32.1c-0.5,0.3-43-47.4-43-47.4s0.6-0.6,0.9-0.9c3.4-3.5,6.6-7.5,9.4-11.7c7-10.6,10.6-22.4,10.6-35.5
		c0-15.1-5-27.7-15.1-37.8c-10.1-10.1-22.9-15.1-38.5-15.1c-17.6,0-30.7,4.8-39.3,14.4c-8.6,9.6-12.8,22.2-12.8,37.8
		c0,18.6,5.2,36,15.5,52.1c10.3,16.1,26.1,34.7,47.2,55.9l121.6,124.6c7-11.6,14.1-25.5,21.2-41.9c7-16.4,13.3-32.1,18.9-47.2
		l67.2,27.2c-7.5,21.7-16.6,42.8-27.2,63.5s-20.1,37.5-28.7,50.6l114.1,115.7L676.8,756.8z"/>
</g>
</svg>
