<?xml version="1.0" encoding="utf-8"?>
<!-- Generator: Adobe Illustrator 24.0.3, SVG Export Plug-In . SVG Version: 6.00 Build 0)  -->
<svg version="1.1" id="Layer_1" xmlns="http://www.w3.org/2000/svg" xmlns:xlink="http://www.w3.org/1999/xlink" x="0px" y="0px"
	 viewBox="0 0 1801 406.72" style="enable-background:new 0 0 1801 406.72;" xml:space="preserve">
<style type="text/css">
	.st0{fill:#263846;}
</style>
<g>
	<g>
		<g>
			<path class="st0" d="M1502.18,76.73h-38.2v153.78h38.2V76.73z M123.35,230.51h39.5V26.55h-39.5v82.56H39.5V26.55H0v203.96h39.5
				v-89.68h83.85V230.51z M300.77,154.11c0,9.71-1.08,17.86-3.24,24.44c-2.16,6.59-4.97,11.82-8.42,15.7
				c-3.46,3.89-7.5,6.69-12.14,8.42c-4.64,1.73-9.34,2.59-14.08,2.59c-4.97,0-9.77-0.97-14.41-2.91c-4.64-1.94-8.74-5.02-12.3-9.23
				c-3.56-4.21-6.42-9.5-8.58-15.86c-2.16-6.36-3.24-14.08-3.24-23.15c0-9.92,1.08-18.24,3.24-24.93
				c2.15-6.69,4.96-12.03,8.42-16.03c3.45-3.99,7.45-6.8,11.98-8.42c4.53-1.62,9.28-2.43,14.25-2.43c4.96,0,9.76,0.97,14.41,2.91
				c4.64,1.94,8.74,4.97,12.3,9.07c3.56,4.1,6.42,9.44,8.58,16.03C299.68,136.9,300.77,144.83,300.77,154.11 M334.27,186.8
				c3.99-10.14,5.99-21.58,5.99-34.32c0-12.95-1.94-24.28-5.83-33.99c-3.89-9.71-9.28-17.91-16.19-24.61
				c-6.91-6.69-15.05-11.71-24.44-15.05c-9.39-3.34-19.59-5.02-30.59-5.02c-11.01,0-21.26,1.84-30.76,5.5
				c-9.5,3.67-17.81,8.96-24.93,15.86c-7.12,6.91-12.68,15.49-16.67,25.74c-4,10.25-5.99,21.85-5.99,34.8
				c0,12.52,1.94,23.63,5.83,33.35c3.88,9.71,9.28,17.86,16.19,24.44c6.9,6.59,15.05,11.61,24.44,15.05
				c9.39,3.45,19.59,5.18,30.59,5.18c11.01,0,21.26-1.84,30.76-5.5c9.49-3.67,17.81-8.95,24.93-15.86
				C324.72,205.48,330.28,196.95,334.27,186.8 M360.33,230.51h37.56V0h-37.56V230.51z M627.75,230.51h38.2V124.97
				c0-16.4-4.21-29.03-12.63-37.88c-8.42-8.85-20.72-13.27-36.91-13.27c-10.58,0-20.29,2.16-29.14,6.48
				c-8.85,4.32-16.95,10.25-24.28,17.81c-3.67-7.77-9.18-13.76-16.51-17.97c-7.34-4.21-16.41-6.31-27.2-6.31
				c-10.8,0-20.29,2.1-28.49,6.31c-8.21,4.21-15.86,9.87-22.99,17l-4.86-20.4H433.5v153.78h38.2V122.38
				c4.96-5.83,10.52-10.41,16.67-13.76c6.15-3.34,12.35-5.02,18.62-5.02c7.98,0,13.92,2.38,17.81,7.12
				c3.88,4.75,5.83,11.22,5.83,19.43v100.36h38.2V129.18v-4.05c0-1.18-0.11-2.54-0.32-4.05c4.96-5.61,10.57-9.92,16.84-12.95
				c6.26-3.02,12.51-4.53,18.78-4.53c7.98,0,13.92,2.38,17.81,7.12c3.89,4.75,5.83,11.22,5.83,19.43V230.51z M727.78,136.3
				c1.3-10.57,5.07-19.1,11.33-25.58c6.26-6.48,14.25-9.71,23.96-9.71c5.18,0,9.66,0.92,13.44,2.75c3.77,1.84,6.85,4.37,9.23,7.61
				c2.37,3.24,4.1,6.96,5.18,11.17c1.08,4.21,1.62,8.58,1.62,13.11L727.78,136.3z M727.14,162.2h104.57v-17.48
				c0-22.23-6.04-39.6-18.13-52.12c-12.09-12.51-28.38-18.78-48.89-18.78c-11.44,0-21.91,1.94-31.4,5.83
				c-9.5,3.89-17.59,9.39-24.28,16.51c-6.69,7.12-11.87,15.65-15.54,25.58c-3.67,9.93-5.5,20.94-5.5,33.02
				c0,13.81,2.21,25.69,6.64,35.61c4.42,9.93,10.41,18.13,17.97,24.61c7.55,6.48,16.35,11.22,26.39,14.25
				c10.04,3.02,20.77,4.53,32.21,4.53c11.44,0,21.47-0.97,30.11-2.91c8.63-1.94,16.08-4.32,22.34-7.12l-7.45-26.87
				c-6.04,2.59-12.36,4.64-18.94,6.15c-6.59,1.51-14.08,2.27-22.5,2.27c-14.24,0-25.74-3.45-34.48-10.36
				c-8.74-6.91-13.11-17.37-13.11-31.4V162.2z M890.95,128.37c-3.45-2.91-5.18-6.42-5.18-10.52c0-4.96,2.1-8.85,6.31-11.66
				c4.21-2.8,10.31-4.21,18.29-4.21c12.09,0,24.49,3.03,37.23,9.07l8.09-27.52c-7.12-3.24-14.84-5.67-23.15-7.28
				c-8.31-1.62-16.89-2.43-25.74-2.43c-8.85,0-16.89,1.13-24.12,3.4c-7.23,2.27-13.39,5.45-18.45,9.55
				c-5.07,4.1-9.02,9.02-11.82,14.73c-2.81,5.72-4.21,11.93-4.21,18.62c0,11.44,3.18,20.67,9.55,27.68
				c6.36,7.02,16.24,12.68,29.62,17l10.04,3.24c10.14,3.03,17.32,5.83,21.53,8.42c4.21,2.59,6.31,6.48,6.31,11.66
				c0,11.44-8.96,17.16-26.87,17.16c-7.56,0-14.84-0.97-21.85-2.91c-7.02-1.94-13.65-4.42-19.91-7.45l-8.42,28.49
				c13.81,6.91,31.19,10.36,52.12,10.36c19.43,0,34.75-4.37,45.97-13.11c11.22-8.74,16.84-20.56,16.84-35.45
				c0-11.66-3.51-21.04-10.52-28.17c-7.02-7.12-17.43-12.73-31.24-16.84l-9.71-2.91C901.31,134.25,894.4,131.28,890.95,128.37
				 M1390.17,230.51h39.5V26.55h-39.5v82.56h-83.85V26.55h-39.5v203.96h39.5v-89.68h83.85V230.51z M1498.3,35.61
				c3.89-3.89,5.83-8.74,5.83-14.57s-1.94-10.68-5.83-14.57c-3.89-3.89-8.96-5.83-15.22-5.83c-6.47,0-11.66,2-15.54,5.99
				c-3.89,4-5.83,8.8-5.83,14.41c0,5.83,1.89,10.68,5.67,14.57c3.77,3.89,9.01,5.83,15.7,5.83
				C1489.34,41.44,1494.41,39.5,1498.3,35.61 M1541.03,230.51h37.56V0h-37.56V230.51z M1615.17,230.51h37.56V0h-37.56V230.51z
				 M1785.46,111.05l8.09-27.52c-7.12-3.24-14.84-5.67-23.15-7.28c-8.31-1.62-16.89-2.43-25.74-2.43c-8.85,0-16.89,1.13-24.12,3.4
				c-7.23,2.27-13.39,5.45-18.45,9.55c-5.07,4.1-9.02,9.02-11.82,14.73c-2.81,5.72-4.21,11.93-4.21,18.62
				c0,11.44,3.18,20.67,9.55,27.68c6.36,7.02,16.24,12.68,29.62,17l10.04,3.24c10.14,3.03,17.32,5.83,21.53,8.42
				c4.21,2.59,6.31,6.48,6.31,11.66c0,11.44-8.96,17.16-26.87,17.16c-7.56,0-14.84-0.97-21.85-2.91
				c-7.02-1.94-13.65-4.42-19.91-7.45l-8.42,28.49c13.81,6.91,31.19,10.36,52.12,10.36c19.42,0,34.75-4.37,45.97-13.11
				c11.22-8.74,16.83-20.56,16.83-35.45c0-11.66-3.51-21.04-10.52-28.17c-7.02-7.12-17.43-12.73-31.24-16.84l-9.71-2.91
				c-10.36-3.02-17.27-5.99-20.72-8.9c-3.45-2.91-5.18-6.42-5.18-10.52c0-4.96,2.1-8.85,6.31-11.66c4.21-2.8,10.31-4.21,18.29-4.21
				C1760.31,101.98,1772.72,105.01,1785.46,111.05"/>
			<g>
				<g>
					<path class="st0" d="M1089.07,202.16c-12.16,0-22.04-2.82-29.64-8.47c-7.6-5.86-11.4-14.33-11.4-25.4
						c0-8.47,1.97-15.53,5.89-21.19l-24.3-24.3c-4.75,3.62-8.6,7.6-11.56,11.94c-7.38,10.21-11.07,21.93-11.07,35.17
						c0,19.76,6.84,35.28,20.52,46.57c13.46,11.51,32.24,17.26,56.34,17.26c15.85,0,29.31-2.5,40.38-7.49
						c2.3-0.96,4.06-1.93,5.88-2.94l-23.62-23.62C1101,201.34,1095.19,202.16,1089.07,202.16z"/>
				</g>
				<path class="st0" d="M1174.71,181.97c3.91-6.06,7.82-12.89,11.74-20.51c4.12-8.03,7.92-17.04,11.4-27.03l-31.92-13.03
					c-1.52,5.21-4.02,11.84-7.49,19.87c-2.48,5.57-5.15,11.05-8.02,16.42l-50.25-50.25l-1.66-1.67
					c-8.47-8.68-14.55-16.17-18.24-22.47c-4.13-6.08-6.19-12.81-6.19-20.19c0-6.29,1.74-11.29,5.21-14.98
					c3.26-3.69,8.47-5.54,15.63-5.54c5.86,0,10.85,1.95,14.98,5.86c4.12,3.91,6.19,8.79,6.19,14.66c0,5.65-1.41,10.53-4.23,14.65
					c-2.58,4.09-5.92,7.33-9.99,9.71l20.74,20.74c8.63-4.33,15.77-10.07,21.82-17.42c6.29-7.6,9.44-16.82,9.44-27.68
					c0-7.38-1.52-14-4.56-19.87c-2.82-5.86-6.84-11.07-12.05-15.63c-5.65-4.56-11.84-7.92-18.56-10.1
					c-7.16-2.61-14.87-3.91-23.12-3.91c-18.89,0-33.66,4.56-44.29,13.68c-5.27,4.45-9.59,9.95-12.41,16.26
					c-0.78,1.74-1.45,3.54-2.01,5.36c-6.11,19.83,1.12,45.26,15.71,59.85c0.03,0.03,121.74,121.74,121.74,121.74l0,0h48.92
					L1174.71,181.97z"/>
			</g>
		</g>
	</g>
	<g>
		<path class="st0" d="M1187.21,326.87c-3.63,1.17-6.68,2.79-9.14,4.88c-2.46,2.08-4.32,4.57-5.57,7.45
			c-1.25,2.88-1.88,6.03-1.88,9.45c0,3.17,0.48,5.95,1.44,8.32c0.96,2.38,2.29,4.44,4.01,6.2c1.71,1.75,3.77,3.29,6.19,4.63
			c2.42,1.34,5.09,2.5,8.01,3.51l6.63,2.25c2.75,0.84,4.99,1.69,6.7,2.57c1.71,0.88,3.06,1.75,4.07,2.63c1,0.88,1.69,1.79,2.06,2.75
			c0.38,0.96,0.56,1.94,0.56,2.94c0,2.92-1.12,5.19-3.38,6.82c-2.25,1.62-5.59,2.44-10.01,2.44c-3.75,0-7.34-0.48-10.76-1.44
			c-3.42-0.96-6.92-2.32-10.51-4.07l-3.88,12.77c7.84,3.84,16.47,5.75,25.9,5.75c5.01,0,9.38-0.62,13.14-1.88
			c3.76-1.25,6.88-2.96,9.39-5.13c2.5-2.17,4.38-4.71,5.63-7.63c1.25-2.92,1.88-6.05,1.88-9.39c0-5.59-1.77-10.3-5.32-14.14
			c-3.55-3.84-8.45-6.8-14.71-8.89l-7.51-2.38c-4.25-1.34-7.34-2.71-9.26-4.13c-1.92-1.42-2.88-3.51-2.88-6.26
			c0-2.67,1.1-4.8,3.32-6.38c2.21-1.59,5.32-2.38,9.32-2.38c3.01,0,6.09,0.44,9.27,1.31c3.17,0.88,6.46,2.15,9.88,3.82l3.88-12.77
			c-3.08-1.58-6.59-2.88-10.51-3.88c-3.92-1-8.43-1.5-13.52-1.5C1194.99,325.12,1190.84,325.71,1187.21,326.87 M1117.19,339.51h8.64
			c4.42,0,7.78,1.03,10.08,3.07c2.29,2.05,3.44,4.94,3.44,8.7c0,4.25-1.44,7.3-4.32,9.14c-2.88,1.84-6.57,2.75-11.08,2.75h-6.76
			V339.51z M1100.17,405.34h17.02v-29.03h9.14l15.14,29.03h19.65l-19.27-32.03c1.67-0.75,3.4-1.73,5.19-2.94
			c1.79-1.21,3.42-2.71,4.88-4.5c1.45-1.79,2.67-3.92,3.62-6.38c0.96-2.46,1.44-5.27,1.44-8.45c0-3.42-0.57-6.61-1.69-9.57
			c-1.13-2.96-2.82-5.55-5.07-7.76c-2.25-2.21-5.07-3.97-8.45-5.26c-3.38-1.29-7.28-1.94-11.7-1.94h-29.91V405.34z M1025.71,353.78
			c1.08-3.5,2.54-6.4,4.38-8.69c1.84-2.29,4.01-4.03,6.51-5.2c2.51-1.17,5.21-1.75,8.14-1.75c2.92,0,5.65,0.55,8.2,1.63
			c2.54,1.08,4.77,2.77,6.69,5.07s3.44,5.19,4.57,8.7c1.13,3.51,1.69,7.68,1.69,12.51c0,4.68-0.55,8.74-1.63,12.2
			c-1.08,3.46-2.55,6.34-4.38,8.63c-1.84,2.3-4.03,4.01-6.57,5.14c-2.54,1.12-5.23,1.69-8.07,1.69c-2.92,0-5.65-0.56-8.2-1.69
			c-2.55-1.13-4.77-2.84-6.69-5.14c-1.92-2.29-3.44-5.17-4.57-8.63c-1.13-3.46-1.69-7.53-1.69-12.2
			C1024.08,361.37,1024.62,357.28,1025.71,353.78 M1029.65,327.94c-4.8,1.88-8.95,4.59-12.45,8.14c-3.51,3.55-6.26,7.84-8.26,12.89
			c-2,5.05-3,10.75-3,17.08c0,6.51,0.98,12.29,2.94,17.33c1.96,5.05,4.65,9.3,8.07,12.76c3.42,3.46,7.51,6.09,12.27,7.89
			c4.75,1.79,9.93,2.69,15.52,2.69s10.78-0.94,15.58-2.82c4.8-1.88,8.95-4.57,12.45-8.07c3.5-3.51,6.25-7.76,8.26-12.77
			c2-5.01,3-10.68,3-17.02c0-6.51-0.98-12.31-2.94-17.4c-1.96-5.08-4.65-9.36-8.07-12.83c-3.42-3.46-7.51-6.11-12.26-7.95
			c-4.76-1.84-9.93-2.75-15.52-2.75S1034.45,326.06,1029.65,327.94 M938.6,326.5v13.52h21.77v65.32h17.15v-65.32h22.27V326.5H938.6z
			 M908.95,405.34h17.14V326.5h-17.14V405.34z M864.46,391.76c-2.96-1.12-5.55-2.82-7.76-5.07c-2.21-2.25-3.94-5.11-5.2-8.57
			c-1.25-3.46-1.88-7.57-1.88-12.32c0-4.92,0.65-9.12,1.94-12.58c1.29-3.46,3.06-6.3,5.32-8.51c2.25-2.21,4.88-3.82,7.88-4.82
			c3.01-1,6.22-1.5,9.64-1.5c3.25,0,6.2,0.4,8.82,1.19c2.63,0.79,5.03,1.77,7.2,2.94l3.88-12.64c-2.17-1.17-4.99-2.25-8.45-3.26
			c-3.46-1-7.86-1.5-13.2-1.5c-6.25,0-11.93,0.96-17.02,2.88c-5.09,1.92-9.4,4.66-12.95,8.2c-3.55,3.55-6.3,7.82-8.26,12.83
			c-1.96,5.01-2.94,10.6-2.94,16.77c0,6.34,1,12.03,3,17.08c2.01,5.05,4.82,9.34,8.45,12.89c3.63,3.55,7.95,6.25,12.95,8.13
			s10.47,2.82,16.4,2.82c5.25,0,9.71-0.46,13.39-1.38c3.67-0.91,6.51-1.96,8.51-3.12l-3.5-12.52c-1.92,1.17-4.22,2.09-6.88,2.75
			c-2.67,0.67-5.93,1.01-9.77,1.01C870.61,393.45,867.42,392.89,864.46,391.76 M798.07,405.34h17.14V326.5h-17.14V405.34z
			 M736.99,405.34h48.94v-13.51h-31.79V326.5h-17.15V405.34z M662.53,353.78c1.08-3.5,2.54-6.4,4.38-8.69
			c1.84-2.29,4.01-4.03,6.51-5.2c2.51-1.17,5.21-1.75,8.14-1.75c2.92,0,5.65,0.55,8.2,1.63c2.54,1.08,4.77,2.77,6.69,5.07
			s3.44,5.19,4.57,8.7c1.13,3.51,1.69,7.68,1.69,12.51c0,4.68-0.54,8.74-1.63,12.2c-1.08,3.46-2.54,6.34-4.38,8.63
			c-1.84,2.3-4.03,4.01-6.57,5.14c-2.55,1.12-5.24,1.69-8.07,1.69c-2.92,0-5.65-0.56-8.2-1.69c-2.54-1.13-4.77-2.84-6.69-5.14
			c-1.92-2.29-3.44-5.17-4.57-8.63c-1.13-3.46-1.69-7.53-1.69-12.2C660.91,361.37,661.45,357.28,662.53,353.78 M666.47,327.94
			c-4.8,1.88-8.95,4.59-12.45,8.14c-3.5,3.55-6.25,7.84-8.26,12.89c-2,5.05-3,10.75-3,17.08c0,6.51,0.98,12.29,2.94,17.33
			c1.96,5.05,4.65,9.3,8.07,12.76c3.42,3.46,7.51,6.09,12.26,7.89c4.76,1.79,9.93,2.69,15.52,2.69s10.78-0.94,15.58-2.82
			c4.8-1.88,8.95-4.57,12.45-8.07c3.51-3.51,6.26-7.76,8.26-12.77c2-5.01,3-10.68,3-17.02c0-6.51-0.98-12.31-2.94-17.4
			c-1.96-5.08-4.65-9.36-8.07-12.83c-3.42-3.46-7.51-6.11-12.26-7.95c-4.75-1.84-9.93-2.75-15.52-2.75S671.27,326.06,666.47,327.94
			 M589.89,326.87c-3.63,1.17-6.68,2.79-9.14,4.88c-2.46,2.08-4.32,4.57-5.57,7.45c-1.25,2.88-1.88,6.03-1.88,9.45
			c0,3.17,0.48,5.95,1.44,8.32c0.96,2.38,2.29,4.44,4.01,6.2c1.71,1.75,3.77,3.29,6.19,4.63c2.42,1.34,5.09,2.5,8.01,3.51l6.63,2.25
			c2.75,0.84,4.99,1.69,6.7,2.57c1.71,0.88,3.06,1.75,4.06,2.63c1.01,0.88,1.69,1.79,2.07,2.75s0.56,1.94,0.56,2.94
			c0,2.92-1.12,5.19-3.38,6.82c-2.25,1.62-5.59,2.44-10.01,2.44c-3.75,0-7.34-0.48-10.76-1.44c-3.42-0.96-6.93-2.32-10.51-4.07
			l-3.88,12.77c7.84,3.84,16.48,5.75,25.91,5.75c5.01,0,9.38-0.62,13.14-1.88c3.75-1.25,6.88-2.96,9.39-5.13
			c2.5-2.17,4.38-4.71,5.63-7.63c1.25-2.92,1.88-6.05,1.88-9.39c0-5.59-1.77-10.3-5.32-14.14c-3.55-3.84-8.45-6.8-14.71-8.89
			l-7.51-2.38c-4.25-1.34-7.34-2.71-9.26-4.13c-1.92-1.42-2.88-3.51-2.88-6.26c0-2.67,1.1-4.8,3.32-6.38
			c2.21-1.59,5.32-2.38,9.32-2.38c3.01,0,6.09,0.44,9.26,1.31c3.17,0.88,6.47,2.15,9.89,3.82l3.88-12.77
			c-3.09-1.58-6.59-2.88-10.51-3.88c-3.92-1-8.43-1.5-13.51-1.5C597.67,325.12,593.52,325.71,589.89,326.87"/>
	</g>
</g>
</svg>
