<?xml version="1.0" encoding="utf-8"?>
<!-- Generator: Adobe Illustrator 23.1.1, SVG Export Plug-In . SVG Version: 6.00 Build 0)  -->
<svg version="1.1" id="Layer_1" xmlns="http://www.w3.org/2000/svg" xmlns:xlink="http://www.w3.org/1999/xlink" x="0px" y="0px"
	 viewBox="0 0 800 792.83" style="enable-background:new 0 0 800 792.83;" xml:space="preserve">
<style type="text/css">
	.st0{fill:#FFFFFF;}
</style>
<g>
	<g>
		<path class="st0" d="M706.51,741.36l-4.06,5.59c-0.93,1.28-1.97,2.39-3.13,3.35c-1.16,0.95-2.38,1.64-3.67,2.07
			c-1.29,0.43-2.62,0.54-3.98,0.33c-1.37-0.21-2.74-0.82-4.12-1.82c-1.53-1.11-2.61-2.32-3.22-3.62c-0.61-1.31-0.86-2.68-0.75-4.12
			c0.11-1.44,0.52-2.92,1.23-4.44c0.71-1.51,1.62-3.04,2.73-4.57l3.11-4.29L706.51,741.36z M672.2,702.19l-6.79,9.35l17.94,13.02
			l-4.4,6.05c-1.93,2.66-3.42,5.36-4.48,8.11c-1.06,2.75-1.54,5.44-1.46,8.07c0.08,2.63,0.74,5.14,1.97,7.52
			c1.24,2.38,3.21,4.55,5.92,6.52c2.35,1.71,4.74,2.8,7.17,3.27c2.42,0.47,4.84,0.37,7.24-0.31c2.4-0.68,4.73-1.87,6.99-3.59
			c2.26-1.72,4.37-3.93,6.34-6.64l11.85-16.33L672.2,702.19z M740.45,703.95l-51.53-30.1l-5.83,9.98l51.53,30.1L740.45,703.95z
			 M713.11,621.81l24.13,10.3l-9.63,22.57l-24.13-10.3l-4.54,10.63l54.89,23.42l4.53-10.63l-22.22-9.48l9.63-22.57l22.22,9.48
			l4.53-10.63l-54.89-23.42L713.11,621.81z M785.84,571.99c-2.21-4.35-5.85-7.18-10.93-8.48c-4.4-1.13-8.14-0.74-11.21,1.18
			c-3.07,1.92-5.88,4.8-8.43,8.64l-3.06,4.69c-1.21,1.9-2.3,3.43-3.28,4.58c-0.98,1.15-1.92,2.02-2.82,2.6
			c-0.9,0.58-1.79,0.92-2.66,1.03c-0.88,0.1-1.74,0.04-2.59-0.18c-2.45-0.63-4.07-2.04-4.88-4.24s-0.78-4.94,0.07-8.25
			c0.71-2.75,1.72-5.3,3.04-7.63c1.32-2.34,2.96-4.65,4.92-6.95l-7.87-4.76c-2.15,2.51-3.94,5.25-5.38,8.2
			c-1.44,2.95-2.59,6.08-3.44,9.39c-0.86,3.36-1.21,6.49-1.04,9.37c0.17,2.88,0.8,5.44,1.89,7.67c1.09,2.24,2.55,4.11,4.38,5.62
			c1.83,1.51,3.99,2.59,6.5,3.24c3.85,0.99,7.51,0.59,10.97-1.19c3.46-1.79,6.59-4.86,9.41-9.22l3.27-5.12
			c1.86-2.91,3.53-4.94,5.04-6.09s3.32-1.44,5.46-0.89c2.2,0.56,3.72,1.88,4.56,3.96c0.84,2.07,0.85,4.67,0.05,7.79
			c-0.57,2.2-1.45,4.36-2.64,6.46c-1.19,2.11-2.72,4.26-4.59,6.45l7.96,4.79c1.76-2.03,3.32-4.35,4.68-6.97
			c1.36-2.62,2.48-5.64,3.36-9.06C788.28,581.88,788.04,576.34,785.84,571.99 M789.36,512.37l-0.81,7.15
			c-0.4,3.58-1.53,6.2-3.37,7.87c-1.84,1.66-4.33,2.32-7.47,1.97c-3.45-0.39-5.78-1.83-6.99-4.32c-1.21-2.49-1.61-5.52-1.21-9.1
			l0.65-5.74L789.36,512.37z M740.17,495.46l-1.27,11.2l22.31,2.52l-0.89,7.81l-23.7,9.81l-1.48,13.08l26.07-12.21
			c0.42,1.38,1,2.81,1.75,4.3c0.75,1.48,1.76,2.87,3.01,4.15c1.25,1.29,2.75,2.39,4.48,3.32c1.74,0.93,3.8,1.53,6.19,1.8
			c2.57,0.29,5,0.14,7.3-0.46c2.29-0.6,4.35-1.64,6.17-3.12c1.82-1.48,3.34-3.39,4.56-5.73c1.22-2.34,2.01-5.14,2.38-8.41
			l2.42-21.37L740.17,495.46z M738.95,439.34l1.42,38.15l9.09-0.34l-0.99-26.6l17.42-0.65l0.89,23.86l8.99-0.33l-0.89-23.86
			l15.05-0.56l0.98,26.32l9.09-0.34l-1.41-37.87L738.95,439.34z M727.45,369.13l2,10.71l16.86-3.14c4.47-0.84,8.86-1.67,13.17-2.51
			c4.31-0.84,8.73-1.84,13.27-3.01l0.04,0.19c-1.3,0.95-2.98,2.28-5.04,3.98c-2.06,1.7-4.01,3.46-5.86,5.29l-27.21,27.15l1.91,10.24
			l58.67-10.95l-2-10.71l-17.23,3.22c-4.28,0.8-8.58,1.6-12.9,2.41c-4.32,0.81-8.58,1.79-12.79,2.97l-0.03-0.19
			c1.06-0.84,2.41-1.96,4.05-3.36c1.63-1.4,3.27-2.89,4.9-4.48l28.79-28.5l-1.91-10.24L727.45,369.13z M763.42,290.98l-8.75,3.11
			l5.71,16.06l-47.48,16.88l3.87,10.89l47.48-16.88l5.87,16.51l8.75-3.11L763.42,290.98z M732.48,249.06l3.36,6.37
			c1.68,3.18,2.22,5.98,1.64,8.4c-0.59,2.41-2.27,4.36-5.06,5.83c-3.07,1.62-5.81,1.74-8.21,0.37c-2.4-1.38-4.44-3.65-6.12-6.84
			l-2.7-5.11L732.48,249.06z M682.31,262.76l5.26,9.97l19.86-10.47l3.66,6.96l-14.07,21.44l6.14,11.65l14.68-24.76
			c1.12,0.91,2.41,1.76,3.87,2.57c1.46,0.8,3.07,1.38,4.82,1.74c1.76,0.36,3.62,0.43,5.58,0.22c1.96-0.21,4-0.88,6.12-2
			c2.29-1.21,4.21-2.7,5.77-4.49c1.56-1.78,2.67-3.8,3.34-6.05c0.67-2.25,0.85-4.68,0.54-7.3c-0.31-2.62-1.23-5.39-2.76-8.29
			l-10.03-19.02L682.31,262.76z M640.77,203.46l7.07,9.73l15-4.34l13.08,18.01l-8.76,12.92l7.18,9.89l34.98-53.39l-6.79-9.35
			L640.77,203.46z M680.4,203.36c2.7-0.79,5.28-1.57,7.73-2.34s4.98-1.55,7.6-2.36l0.11,0.15c-1.77,2.3-3.36,4.45-4.79,6.46
			c-1.43,2.01-2.95,4.16-4.58,6.43l-5.29,7.71l-9.74-13.41L680.4,203.36z M651.53,142.53l4.82,4.95c1.1,1.13,2.02,2.35,2.77,3.65
			c0.74,1.31,1.22,2.63,1.42,3.97c0.2,1.34,0.09,2.67-0.36,3.98c-0.44,1.31-1.27,2.56-2.49,3.75c-1.36,1.32-2.73,2.18-4.12,2.56
			c-1.39,0.38-2.78,0.4-4.19,0.05c-1.4-0.35-2.79-1.01-4.16-1.96c-1.37-0.96-2.72-2.11-4.04-3.47l-3.7-3.8L651.53,142.53z
			 M607.09,169.69l8.07,8.28l15.88-15.47l5.22,5.36c2.29,2.35,4.7,4.28,7.23,5.79c2.53,1.51,5.09,2.44,7.7,2.81
			c2.61,0.37,5.19,0.15,7.75-0.67c2.55-0.81,5.03-2.39,7.43-4.73c2.08-2.03,3.56-4.2,4.44-6.51c0.88-2.31,1.19-4.71,0.93-7.19
			c-0.26-2.48-1.04-4.98-2.35-7.5c-1.31-2.52-3.13-4.98-5.46-7.37l-14.08-14.45L607.09,169.69z M525.93,110.89l9.19,5.84l9.19-14.47
			c2.44-3.84,4.82-7.62,7.15-11.34c2.32-3.72,4.61-7.64,6.85-11.75l0.16,0.1c-0.19,1.6-0.37,3.73-0.53,6.4
			c-0.16,2.66-0.2,5.29-0.13,7.89l1.3,38.42l8.8,5.59l32-50.38l-9.2-5.84l-9.4,14.79c-2.34,3.68-4.68,7.37-7.03,11.07
			c-2.35,3.71-4.54,7.5-6.55,11.38l-0.16-0.1c0.11-1.35,0.21-3.1,0.31-5.25c0.09-2.15,0.11-4.36,0.06-6.64l-1.21-40.5l-8.79-5.59
			L525.93,110.89z M521.59,42.91l-25.47,53.97l10.45,4.93l25.47-53.97L521.59,42.91z M434.49,14.31c-3.97,0.35-7.61,1.45-10.92,3.31
			c-3.31,1.85-6.21,4.45-8.7,7.79c-2.49,3.34-4.35,7.43-5.59,12.26c-1.24,4.83-1.58,9.3-1,13.39c0.58,4.09,1.89,7.74,3.94,10.94
			c2.05,3.2,4.73,5.91,8.03,8.13s7.04,3.86,11.2,4.93c4.04,1.04,7.7,1.64,10.98,1.8c3.28,0.16,6.28,0.03,9-0.38l7.41-28.81
			l-20.65-5.31l-2.17,8.44l10,2.57l-3.68,14.31c-2.22,0.28-5.14-0.05-8.74-0.98c-5.75-1.48-9.7-4.45-11.85-8.91
			c-2.14-4.46-2.33-10.15-0.55-17.06c1.01-3.92,2.36-7.1,4.07-9.57c1.71-2.46,3.66-4.34,5.85-5.64s4.53-2.05,7.03-2.25
			c2.5-0.2,5.03,0.02,7.6,0.68c2.32,0.6,4.56,1.42,6.71,2.46c2.14,1.04,4.15,2.36,6.03,3.94l4.41-7.28
			c-1.98-1.68-4.29-3.16-6.93-4.42c-2.64-1.27-5.7-2.35-9.19-3.24C442.56,14.33,438.46,13.97,434.49,14.31 M334.05,59.45l10.85,0.95
			l1.5-17.08c0.4-4.53,0.77-8.98,1.13-13.36c0.35-4.38,0.57-8.9,0.67-13.59l0.19,0.02c0.56,1.51,1.39,3.48,2.48,5.92
			c1.08,2.44,2.26,4.8,3.52,7.06l18.84,33.51l10.38,0.91l5.22-59.45l-10.85-0.95l-1.53,17.46c-0.38,4.34-0.76,8.7-1.15,13.07
			c-0.38,4.37-0.58,8.75-0.58,13.12l-0.19-0.02c-0.53-1.25-1.24-2.85-2.15-4.8c-0.91-1.95-1.91-3.92-3-5.92L349.65,0.91L339.27,0
			L334.05,59.45z M298.91,1.28l2.22,59.64l11.55-0.43l-2.22-59.64L298.91,1.28z M248.69,67.39l-3.31-20.48l4.02-6.02l22.95,22.68
			l14.12-2.28l-30.04-29.12l18.65-29.5l-14.21,2.3l-17.59,28.94l-4.11-25.44l-11.41,1.84l9.52,58.91L248.69,67.39z M174.61,34.71
			l6.87-2.17c3.43-1.08,6.28-1.12,8.55-0.11c2.27,1.01,3.88,3.01,4.83,6.02c1.04,3.31,0.68,6.03-1.1,8.15
			c-1.78,2.12-4.39,3.72-7.82,4.8l-5.51,1.74L174.61,34.71z M179.13,86.53l10.75-3.39l-6.75-21.41l7.5-2.37l18.59,17.68l12.56-3.96
			l-21.74-18.87c1.09-0.94,2.16-2.06,3.21-3.35c1.05-1.29,1.91-2.77,2.58-4.44c0.67-1.67,1.07-3.48,1.21-5.45
			c0.14-1.96-0.15-4.09-0.87-6.38c-0.78-2.47-1.91-4.63-3.39-6.48c-1.48-1.85-3.26-3.31-5.35-4.37c-2.09-1.06-4.45-1.67-7.09-1.84
			c-2.63-0.16-5.52,0.25-8.65,1.24l-20.51,6.47L179.13,86.53z M104.2,78.51c-0.51-2.86-0.51-5.43-0.01-7.71
			c0.5-2.28,1.44-4.28,2.82-6.02c1.38-1.73,3.11-3.14,5.19-4.2c2.08-1.06,4.23-1.68,6.44-1.86c2.21-0.18,4.42,0.18,6.62,1.08
			c2.2,0.9,4.32,2.38,6.38,4.45c2.05,2.07,3.94,4.79,5.67,8.17c1.7,3.32,2.79,6.38,3.26,9.18c0.48,2.81,0.47,5.35-0.03,7.62
			c-0.5,2.28-1.45,4.27-2.84,5.98c-1.4,1.71-3.13,3.09-5.21,4.16c-2.08,1.07-4.24,1.67-6.46,1.82c-2.23,0.15-4.44-0.23-6.64-1.12
			c-2.2-0.9-4.31-2.35-6.33-4.37c-2.02-2.01-3.88-4.68-5.58-8C105.8,84.43,104.71,81.37,104.2,78.51 M99.11,59.62
			c-2.54,2.87-4.38,6.07-5.5,9.63c-1.12,3.55-1.48,7.37-1.06,11.45c0.42,4.08,1.74,8.28,3.95,12.61c2.27,4.44,4.93,8.03,7.96,10.77
			c3.04,2.74,6.28,4.68,9.74,5.82c3.46,1.14,7.06,1.49,10.81,1.06c3.75-0.43,7.48-1.6,11.19-3.49c3.71-1.9,6.84-4.28,9.38-7.14
			c2.54-2.86,4.39-6.06,5.52-9.59c1.14-3.52,1.5-7.31,1.1-11.36c-0.4-4.05-1.71-8.24-3.93-12.57c-2.27-4.44-4.93-8.03-7.96-10.77
			c-3.04-2.74-6.29-4.69-9.76-5.86c-3.47-1.17-7.09-1.55-10.86-1.15c-3.77,0.4-7.5,1.55-11.22,3.45
			C104.78,54.38,101.65,56.76,99.11,59.62 M0,127.91l49.69,36.89l9.62-7.53L46.19,127.6c-1.09-2.52-2.15-4.85-3.19-7
			c-1.04-2.15-2.22-4.52-3.52-7.11l0.15-0.12c2.21,1.8,4.29,3.48,6.23,5.05c1.95,1.56,3.99,3.15,6.13,4.76l25.82,19.61l9.7-7.59
			L63.33,78.34l-9.18,7.18l12.69,28.2c0.43,0.86,0.97,1.96,1.62,3.3c0.65,1.34,1.34,2.74,2.09,4.2c0.74,1.47,1.48,2.92,2.2,4.35
			c0.72,1.44,1.36,2.66,1.91,3.68l-0.15,0.12c-0.85-0.78-1.9-1.71-3.14-2.78c-1.24-1.07-2.49-2.16-3.75-3.26
			c-1.26-1.1-2.48-2.11-3.64-3.04c-1.17-0.93-2.08-1.66-2.74-2.19L36.33,99.48l-9.18,7.18l12.15,28.74c0.4,0.81,0.91,1.88,1.53,3.19
			c0.63,1.31,1.3,2.71,2.02,4.19c0.72,1.48,1.45,2.93,2.2,4.35c0.75,1.42,1.42,2.66,2.01,3.72l-0.15,0.12
			c-0.8-0.82-1.81-1.77-3.02-2.87c-1.22-1.09-2.44-2.18-3.69-3.25c-1.24-1.07-2.43-2.08-3.58-3.03c-1.14-0.95-2.04-1.69-2.7-2.22
			L9.32,120.61L0,127.91z"/>
	</g>
	<g>
		<path class="st0" d="M325.87,155.92C150,155.92,7.42,298.5,7.42,474.38S150,792.83,325.87,792.83
			c175.88,0,318.46-142.58,318.46-318.46S501.75,155.92,325.87,155.92z M358.87,620.39c-15.77,7.11-34.95,10.67-57.52,10.67
			c-34.32,0-61.07-8.19-80.24-24.58c-19.48-16.08-29.22-38.19-29.22-66.33c0-18.86,5.25-35.56,15.77-50.09
			c4.21-6.17,9.7-11.85,16.46-17.01l34.61,34.61c-5.6,8.06-8.4,18.12-8.4,30.17c0,15.77,5.41,27.83,16.23,36.18
			c10.82,8.05,24.89,12.06,42.21,12.06c8.72,0,16.99-1.16,24.84-3.51l33.64,33.64C364.65,617.63,362.15,619.02,358.87,620.39z
			 M430.19,626.42L430.19,626.42c0,0-173.35-173.35-173.39-173.39c-20.78-20.79-31.07-57-22.37-85.25c0.8-2.6,1.75-5.15,2.86-7.64
			c4.01-8.98,10.17-16.83,17.68-23.16c15.15-12.99,36.18-19.48,63.08-19.48c11.75,0,22.73,1.86,32.93,5.57
			c9.58,3.09,18.39,7.89,26.44,14.38c7.42,6.49,13.14,13.92,17.16,22.26c4.33,8.35,6.49,17.79,6.49,28.29
			c0,15.47-4.49,28.61-13.45,39.43c-8.62,10.47-18.79,18.64-31.08,24.81l-29.54-29.54c5.8-3.39,10.55-8,14.23-13.83
			c4.02-5.87,6.03-12.83,6.03-20.87c0-8.35-2.94-15.31-8.81-20.87c-5.88-5.57-12.99-8.35-21.34-8.35c-10.2,0-17.63,2.63-22.26,7.89
			c-4.95,5.26-7.42,12.37-7.42,21.34c0,10.52,2.94,20.1,8.81,28.76c5.25,8.97,13.92,19.64,25.98,32.01l2.36,2.37l71.57,71.57
			c4.08-7.65,7.89-15.45,11.42-23.39c4.94-11.44,8.5-20.87,10.67-28.29l45.46,18.55c-4.95,14.23-10.36,27.06-16.23,38.5
			c-5.58,10.85-11.15,20.59-16.72,29.22l69.12,69.12H430.19z"/>
	</g>
</g>
</svg>
