<?xml version="1.0" encoding="UTF-8"?><svg id="Layer_1" xmlns="http://www.w3.org/2000/svg" xmlns:xlink="http://www.w3.org/1999/xlink" viewBox="0 0 2399.97 2400.16"><defs><style>.cls-1{fill:none;}.cls-2{clip-path:url(#clippath);}.cls-3{fill:#fff265;}</style><clipPath id="clippath"><rect class="cls-1" y="0" width="2399.97" height="2399.97"/></clipPath></defs><g class="cls-2"><g><polygon class="cls-3" points="1715.12 4106.63 1723.23 4123.39 1705.24 4114.69 -1714.53 694.93 -1723.23 676.94 -1706.48 685.03 1715.12 4106.63"/><polygon class="cls-3" points="1741.14 4105.47 1723.15 4096.78 -1696.62 677.02 -1705.32 659.02 -1688.57 667.12 1733.03 4088.72 1741.14 4105.47"/><polygon class="cls-3" points="1759.05 4087.56 1741.06 4078.87 -1678.71 659.11 -1687.41 641.11 -1670.66 649.21 1750.94 4070.8 1759.05 4087.56"/><polygon class="cls-3" points="1776.96 4069.65 1758.97 4060.95 -1660.8 641.19 -1669.5 623.2 -1652.75 631.3 1768.85 4052.89 1776.96 4069.65"/><polygon class="cls-3" points="1794.87 4051.74 1776.88 4043.04 -1642.89 623.28 -1651.59 605.29 -1634.84 613.38 1786.76 4034.98 1794.87 4051.74"/><polygon class="cls-3" points="1812.78 4033.83 1794.79 4025.13 -1624.98 605.37 -1633.68 587.38 -1616.93 595.47 1804.67 4017.07 1812.78 4033.83"/><polygon class="cls-3" points="1830.69 4015.92 1812.7 4007.22 -1607.07 587.46 -1615.77 569.47 -1599.02 577.56 1822.58 3999.16 1830.69 4015.92"/><polygon class="cls-3" points="1848.6 3998 1830.61 3989.31 -1589.15 569.55 -1597.86 551.55 -1581.11 559.65 1840.5 3981.25 1848.6 3998"/><polygon class="cls-3" points="1866.51 3980.09 1848.52 3971.4 -1571.24 551.64 -1579.94 533.64 -1563.2 541.74 1858.41 3963.33 1866.51 3980.09"/><polygon class="cls-3" points="1884.42 3962.18 1866.43 3953.48 -1553.33 533.73 -1562.03 515.73 -1545.29 523.83 1876.32 3945.42 1884.42 3962.18"/><polygon class="cls-3" points="1902.33 3944.27 1884.34 3935.57 -1535.42 515.81 -1544.12 497.82 -1527.38 505.91 1894.23 3927.51 1902.33 3944.27"/><polygon class="cls-3" points="1920.24 3926.36 1902.25 3917.66 -1517.51 497.9 -1526.21 479.91 -1509.47 488 1912.14 3909.6 1920.24 3926.36"/><polygon class="cls-3" points="1938.15 3908.45 1920.16 3899.75 -1499.6 479.99 -1508.3 462 -1491.55 470.09 1930.05 3891.69 1938.15 3908.45"/><polygon class="cls-3" points="1956.06 3890.53 1938.07 3881.84 -1481.69 462.08 -1490.39 444.08 -1473.64 452.18 1947.96 3873.78 1956.06 3890.53"/><polygon class="cls-3" points="1973.97 3872.62 1955.98 3863.93 -1463.78 444.17 -1472.48 426.17 -1455.73 434.27 1965.87 3855.86 1973.97 3872.62"/><polygon class="cls-3" points="1991.88 3854.71 1973.89 3846.02 -1445.87 426.26 -1454.57 408.26 -1437.82 416.36 1983.78 3837.95 1991.88 3854.71"/><polygon class="cls-3" points="2009.79 3836.8 1991.8 3828.1 -1427.96 408.34 -1436.66 390.35 -1419.91 398.44 2001.69 3820.04 2009.79 3836.8"/><polygon class="cls-3" points="2027.7 3818.89 2009.71 3810.19 -1410.05 390.43 -1418.75 372.44 -1402 380.53 2019.6 3802.13 2027.7 3818.89"/><polygon class="cls-3" points="2045.61 3800.98 2027.62 3792.28 -1392.14 372.52 -1400.84 354.53 -1384.09 362.62 2037.51 3784.22 2045.61 3800.98"/><polygon class="cls-3" points="2063.52 3783.06 2045.53 3774.37 -1374.23 354.61 -1382.93 336.61 -1366.18 344.71 2055.42 3766.31 2063.52 3783.06"/><polygon class="cls-3" points="2081.43 3765.15 2063.44 3756.46 -1356.32 336.7 -1365.02 318.7 -1348.27 326.8 2073.33 3748.39 2081.43 3765.15"/><polygon class="cls-3" points="2099.34 3747.24 2081.35 3738.55 -1338.41 318.79 -1347.11 300.79 -1330.36 308.89 2091.24 3730.48 2099.34 3747.24"/><polygon class="cls-3" points="2117.25 3729.33 2099.26 3720.63 -1320.5 300.87 -1329.2 282.88 -1312.45 290.97 2109.15 3712.57 2117.25 3729.33"/><polygon class="cls-3" points="2135.16 3711.42 2117.17 3702.72 -1302.59 282.96 -1311.29 264.97 -1294.54 273.06 2127.06 3694.66 2135.16 3711.42"/><polygon class="cls-3" points="2153.07 3693.51 2135.08 3684.81 -1284.68 265.05 -1293.38 247.06 -1276.63 255.15 2144.97 3676.75 2153.07 3693.51"/><polygon class="cls-3" points="2170.98 3675.59 2152.99 3666.9 -1266.77 247.14 -1275.47 229.14 -1258.72 237.24 2162.88 3658.84 2170.98 3675.59"/><polygon class="cls-3" points="2188.89 3657.68 2170.9 3648.99 -1248.86 229.23 -1257.56 211.23 -1240.81 219.33 2180.79 3640.92 2188.89 3657.68"/><polygon class="cls-3" points="2206.8 3639.77 2188.81 3631.08 -1230.95 211.32 -1239.65 193.32 -1222.9 201.42 2198.7 3623.01 2206.8 3639.77"/><polygon class="cls-3" points="2224.71 3621.86 2206.72 3613.16 -1213.04 193.4 -1221.74 175.41 -1204.99 183.5 2216.61 3605.1 2224.71 3621.86"/><polygon class="cls-3" points="2242.62 3603.95 2224.64 3595.25 -1195.13 175.49 -1203.83 157.5 -1187.08 165.59 2234.52 3587.19 2242.62 3603.95"/><polygon class="cls-3" points="2260.53 3586.04 2242.55 3577.34 -1177.22 157.58 -1185.92 139.59 -1169.17 147.68 2252.43 3569.28 2260.53 3586.04"/><polygon class="cls-3" points="2278.45 3568.12 2260.46 3559.43 -1159.31 139.67 -1168.01 121.67 -1151.26 129.77 2270.34 3551.37 2278.45 3568.12"/><polygon class="cls-3" points="2296.36 3550.21 2278.37 3541.52 -1141.4 121.76 -1150.1 103.76 -1133.35 111.86 2288.25 3533.45 2296.36 3550.21"/><polygon class="cls-3" points="2314.27 3532.3 2296.28 3523.61 -1123.49 103.85 -1132.19 85.85 -1115.44 93.95 2306.16 3515.54 2314.27 3532.3"/><polygon class="cls-3" points="2332.18 3514.39 2314.19 3505.69 -1105.58 85.93 -1114.28 67.94 -1097.53 76.03 2324.07 3497.63 2332.18 3514.39"/><polygon class="cls-3" points="2350.09 3496.48 2332.1 3487.78 -1087.67 68.02 -1096.37 50.03 -1079.62 58.12 2341.98 3479.72 2350.09 3496.48"/><polygon class="cls-3" points="2368 3478.57 2350.01 3469.87 -1069.76 50.11 -1078.46 32.12 -1061.71 40.21 2359.89 3461.81 2368 3478.57"/><polygon class="cls-3" points="2385.91 3460.65 2367.92 3451.96 -1051.85 32.2 -1060.55 14.2 -1043.8 22.3 2377.8 3443.9 2385.91 3460.65"/><polygon class="cls-3" points="2403.82 3442.74 2385.83 3434.05 -1033.94 14.29 -1042.64 -3.71 -1025.89 4.39 2395.71 3425.99 2403.82 3442.74"/><polygon class="cls-3" points="2421.73 3424.83 2403.74 3416.14 -1016.03 -3.62 -1024.73 -21.62 -1007.98 -13.52 2413.62 3408.07 2421.73 3424.83"/><polygon class="cls-3" points="2439.64 3406.92 2421.65 3398.22 -998.12 -21.54 -1006.82 -39.53 -990.07 -31.43 2431.53 3390.16 2439.64 3406.92"/><polygon class="cls-3" points="2457.55 3389.01 2439.56 3380.31 -980.21 -39.45 -988.91 -57.44 -972.16 -49.35 2449.44 3372.25 2457.55 3389.01"/><polygon class="cls-3" points="2475.46 3371.1 2457.47 3362.4 -962.3 -57.36 -971 -75.35 -954.25 -67.26 2467.35 3354.34 2475.46 3371.1"/><polygon class="cls-3" points="2493.37 3353.18 2475.38 3344.49 -944.39 -75.27 -953.09 -93.26 -936.34 -85.17 2485.26 3336.43 2493.37 3353.18"/><polygon class="cls-3" points="2511.28 3335.27 2493.29 3326.58 -926.48 -93.18 -935.18 -111.18 -918.43 -103.08 2503.17 3318.52 2511.28 3335.27"/><polygon class="cls-3" points="2529.19 3317.36 2511.2 3308.67 -908.56 -111.09 -917.27 -129.09 -900.52 -120.99 2521.08 3300.6 2529.19 3317.36"/><polygon class="cls-3" points="2547.1 3299.45 2529.11 3290.75 -890.65 -129.01 -899.35 -147 -882.61 -138.9 2539 3282.69 2547.1 3299.45"/><polygon class="cls-3" points="2565.01 3281.54 2547.02 3272.84 -872.74 -146.92 -881.44 -164.91 -864.7 -156.82 2556.91 3264.78 2565.01 3281.54"/><polygon class="cls-3" points="2582.92 3263.63 2564.93 3254.93 -854.83 -164.83 -863.53 -182.82 -846.79 -174.73 2574.82 3246.87 2582.92 3263.63"/><polygon class="cls-3" points="2600.83 3245.71 2582.84 3237.02 -836.92 -182.74 -845.62 -200.73 -828.88 -192.64 2592.73 3228.96 2600.83 3245.71"/><polygon class="cls-3" points="2618.74 3227.8 2600.75 3219.11 -819.01 -200.65 -827.71 -218.65 -810.96 -210.55 2610.64 3211.05 2618.74 3227.8"/><polygon class="cls-3" points="2636.65 3209.89 2618.66 3201.2 -801.1 -218.56 -809.8 -236.56 -793.05 -228.46 2628.55 3193.13 2636.65 3209.89"/><polygon class="cls-3" points="2654.56 3191.98 2636.57 3183.28 -783.19 -236.48 -791.89 -254.47 -775.14 -246.37 2646.46 3175.22 2654.56 3191.98"/><polygon class="cls-3" points="2672.47 3174.07 2654.48 3165.37 -765.28 -254.39 -773.98 -272.38 -757.23 -264.29 2664.37 3157.31 2672.47 3174.07"/><polygon class="cls-3" points="2690.38 3156.16 2672.39 3147.46 -747.37 -272.3 -756.07 -290.29 -739.32 -282.2 2682.28 3139.4 2690.38 3156.16"/><polygon class="cls-3" points="2708.29 3138.24 2690.3 3129.55 -729.46 -290.21 -738.16 -308.2 -721.41 -300.11 2700.19 3121.49 2708.29 3138.24"/><polygon class="cls-3" points="2726.2 3120.33 2708.21 3111.64 -711.55 -308.12 -720.25 -326.12 -703.5 -318.02 2718.1 3103.58 2726.2 3120.33"/><polygon class="cls-3" points="2744.11 3102.42 2726.12 3093.73 -693.64 -326.03 -702.34 -344.03 -685.59 -335.93 2736.01 3085.66 2744.11 3102.42"/><polygon class="cls-3" points="2762.02 3084.51 2744.03 3075.81 -675.73 -343.95 -684.43 -361.94 -667.68 -353.84 2753.92 3067.75 2762.02 3084.51"/><polygon class="cls-3" points="2779.93 3066.6 2761.94 3057.9 -657.82 -361.86 -666.52 -379.85 -649.77 -371.76 2771.83 3049.84 2779.93 3066.6"/><polygon class="cls-3" points="2797.84 3048.69 2779.85 3039.99 -639.91 -379.77 -648.61 -397.76 -631.86 -389.67 2789.74 3031.93 2797.84 3048.69"/><polygon class="cls-3" points="2815.75 3030.77 2797.76 3022.08 -622 -397.68 -630.7 -415.67 -613.95 -407.58 2807.65 3014.02 2815.75 3030.77"/><polygon class="cls-3" points="2833.66 3012.86 2815.67 3004.17 -604.09 -415.59 -612.79 -433.59 -596.04 -425.49 2825.56 2996.11 2833.66 3012.86"/><polygon class="cls-3" points="2851.57 2994.95 2833.58 2986.26 -586.18 -433.5 -594.88 -451.5 -578.13 -443.4 2843.47 2978.19 2851.57 2994.95"/><polygon class="cls-3" points="2869.48 2977.04 2851.49 2968.34 -568.27 -451.42 -576.97 -469.41 -560.22 -461.31 2861.38 2960.28 2869.48 2977.04"/><polygon class="cls-3" points="2887.39 2959.13 2869.4 2950.43 -550.36 -469.33 -559.06 -487.32 -542.31 -479.23 2879.29 2942.37 2887.39 2959.13"/><polygon class="cls-3" points="2905.3 2941.22 2887.31 2932.52 -532.45 -487.24 -541.15 -505.23 -524.4 -497.14 2897.2 2924.46 2905.3 2941.22"/><polygon class="cls-3" points="2923.21 2923.3 2905.23 2914.61 -514.54 -505.15 -523.24 -523.14 -506.49 -515.05 2915.11 2906.55 2923.21 2923.3"/><polygon class="cls-3" points="2941.12 2905.39 2923.14 2896.7 -496.63 -523.06 -505.33 -541.06 -488.58 -532.96 2933.02 2888.64 2941.12 2905.39"/><polygon class="cls-3" points="2959.03 2887.48 2941.05 2878.79 -478.72 -540.97 -487.42 -558.97 -470.67 -550.87 2950.93 2870.72 2959.03 2887.48"/><polygon class="cls-3" points="2976.95 2869.57 2958.96 2860.87 -460.81 -558.89 -469.51 -576.88 -452.76 -568.78 2968.84 2852.81 2976.95 2869.57"/><polygon class="cls-3" points="2994.86 2851.66 2976.87 2842.96 -442.9 -576.8 -451.6 -594.79 -434.85 -586.7 2986.75 2834.9 2994.86 2851.66"/><polygon class="cls-3" points="3012.77 2833.75 2994.78 2825.05 -424.99 -594.71 -433.69 -612.7 -416.94 -604.61 3004.66 2816.99 3012.77 2833.75"/><polygon class="cls-3" points="3030.68 2815.84 3012.69 2807.14 -407.08 -612.62 -415.78 -630.61 -399.03 -622.52 3022.57 2799.08 3030.68 2815.84"/><polygon class="cls-3" points="3048.59 2797.92 3030.6 2789.23 -389.17 -630.53 -397.87 -648.53 -381.12 -640.43 3040.48 2781.17 3048.59 2797.92"/><polygon class="cls-3" points="3066.5 2780.01 3048.51 2771.32 -371.26 -648.44 -379.96 -666.44 -363.21 -658.34 3058.39 2763.25 3066.5 2780.01"/><polygon class="cls-3" points="3084.41 2762.1 3066.42 2753.4 -353.35 -666.36 -362.05 -684.35 -345.3 -676.25 3076.3 2745.34 3084.41 2762.1"/><polygon class="cls-3" points="3102.32 2744.19 3084.33 2735.49 -335.44 -684.27 -344.14 -702.26 -327.39 -694.17 3094.21 2727.43 3102.32 2744.19"/><polygon class="cls-3" points="3120.23 2726.28 3102.24 2717.58 -317.53 -702.18 -326.23 -720.17 -309.48 -712.08 3112.12 2709.52 3120.23 2726.28"/><polygon class="cls-3" points="3138.14 2708.37 3120.15 2699.67 -299.62 -720.09 -308.32 -738.08 -291.57 -729.99 3130.03 2691.61 3138.14 2708.37"/><polygon class="cls-3" points="3156.05 2690.45 3138.06 2681.76 -281.71 -738 -290.41 -756 -273.66 -747.9 3147.94 2673.7 3156.05 2690.45"/><polygon class="cls-3" points="3173.96 2672.54 3155.97 2663.85 -263.8 -755.91 -272.5 -773.91 -255.75 -765.81 3165.85 2655.78 3173.96 2672.54"/><polygon class="cls-3" points="3191.87 2654.63 3173.88 2645.93 -245.89 -773.83 -254.59 -791.82 -237.84 -783.72 3183.76 2637.87 3191.87 2654.63"/><polygon class="cls-3" points="3209.78 2636.72 3191.79 2628.02 -227.97 -791.74 -236.68 -809.73 -219.93 -801.64 3201.67 2619.96 3209.78 2636.72"/><polygon class="cls-3" points="3227.69 2618.81 3209.7 2610.11 -210.06 -809.65 -218.76 -827.64 -202.02 -819.55 3219.59 2602.05 3227.69 2618.81"/><polygon class="cls-3" points="3245.6 2600.9 3227.61 2592.2 -192.15 -827.56 -200.85 -845.55 -184.11 -837.46 3237.5 2584.14 3245.6 2600.9"/><polygon class="cls-3" points="3263.51 2582.98 3245.52 2574.29 -174.24 -845.47 -182.94 -863.47 -166.2 -855.37 3255.41 2566.23 3263.51 2582.98"/><polygon class="cls-3" points="3281.42 2565.07 3263.43 2556.38 -156.33 -863.38 -165.03 -881.38 -148.29 -873.28 3273.32 2548.31 3281.42 2565.07"/><polygon class="cls-3" points="3299.33 2547.16 3281.34 2538.46 -138.42 -881.29 -147.12 -899.29 -130.37 -891.19 3291.23 2530.4 3299.33 2547.16"/><polygon class="cls-3" points="3317.24 2529.25 3299.25 2520.55 -120.51 -899.21 -129.21 -917.2 -112.46 -909.11 3309.14 2512.49 3317.24 2529.25"/><polygon class="cls-3" points="3335.15 2511.34 3317.16 2502.64 -102.6 -917.12 -111.3 -935.11 -94.55 -927.02 3327.05 2494.58 3335.15 2511.34"/><polygon class="cls-3" points="3353.06 2493.43 3335.07 2484.73 -84.69 -935.03 -93.39 -953.02 -76.64 -944.93 3344.96 2476.67 3353.06 2493.43"/><polygon class="cls-3" points="3370.97 2475.51 3352.98 2466.82 -66.78 -952.94 -75.48 -970.94 -58.73 -962.84 3362.87 2458.76 3370.97 2475.51"/><polygon class="cls-3" points="3388.88 2457.6 3370.89 2448.91 -48.87 -970.85 -57.57 -988.85 -40.82 -980.75 3380.78 2440.84 3388.88 2457.6"/><polygon class="cls-3" points="3406.79 2439.69 3388.8 2430.99 -30.96 -988.76 -39.66 -1006.76 -22.91 -998.66 3398.69 2422.93 3406.79 2439.69"/><polygon class="cls-3" points="3424.7 2421.78 3406.71 2413.08 -13.05 -1006.68 -21.75 -1024.67 -5 -1016.58 3416.6 2405.02 3424.7 2421.78"/><polygon class="cls-3" points="3442.61 2403.87 3424.62 2395.17 4.86 -1024.59 -3.84 -1042.58 12.91 -1034.49 3434.51 2387.11 3442.61 2403.87"/><polygon class="cls-3" points="3460.52 2385.96 3442.53 2377.26 22.77 -1042.5 14.07 -1060.49 30.82 -1052.4 3452.42 2369.2 3460.52 2385.96"/><polygon class="cls-3" points="3478.43 2368.04 3460.44 2359.35 40.68 -1060.41 31.98 -1078.41 48.73 -1070.31 3470.33 2351.29 3478.43 2368.04"/><polygon class="cls-3" points="3496.34 2350.13 3478.35 2341.44 58.59 -1078.32 49.89 -1096.32 66.64 -1088.22 3488.24 2333.37 3496.34 2350.13"/><polygon class="cls-3" points="3514.25 2332.22 3496.26 2323.53 76.5 -1096.23 67.8 -1114.23 84.55 -1106.13 3506.15 2315.46 3514.25 2332.22"/><polygon class="cls-3" points="3532.16 2314.31 3514.17 2305.61 94.41 -1114.15 85.71 -1132.14 102.46 -1124.05 3524.06 2297.55 3532.16 2314.31"/><polygon class="cls-3" points="3550.07 2296.4 3532.08 2287.7 112.32 -1132.06 103.62 -1150.05 120.37 -1141.96 3541.97 2279.64 3550.07 2296.4"/><polygon class="cls-3" points="3567.98 2278.49 3549.99 2269.79 130.23 -1149.97 121.53 -1167.96 138.28 -1159.87 3559.88 2261.73 3567.98 2278.49"/><polygon class="cls-3" points="3585.89 2260.57 3567.9 2251.88 148.14 -1167.88 139.44 -1185.88 156.19 -1177.78 3577.79 2243.82 3585.89 2260.57"/><polygon class="cls-3" points="3603.8 2242.66 3585.81 2233.97 166.05 -1185.79 157.35 -1203.79 174.1 -1195.69 3595.7 2225.9 3603.8 2242.66"/><polygon class="cls-3" points="3621.71 2224.75 3603.73 2216.06 183.96 -1203.7 175.26 -1221.7 192.01 -1213.6 3613.61 2207.99 3621.71 2224.75"/><polygon class="cls-3" points="3639.62 2206.84 3621.64 2198.14 201.87 -1221.62 193.17 -1239.61 209.92 -1231.52 3631.52 2190.08 3639.62 2206.84"/><polygon class="cls-3" points="3657.54 2188.93 3639.55 2180.23 219.78 -1239.53 211.08 -1257.52 227.83 -1249.43 3649.43 2172.17 3657.54 2188.93"/><polygon class="cls-3" points="3675.45 2171.02 3657.46 2162.32 237.69 -1257.44 228.99 -1275.43 245.74 -1267.34 3667.34 2154.26 3675.45 2171.02"/><polygon class="cls-3" points="3693.36 2153.1 3675.37 2144.41 255.6 -1275.35 246.9 -1293.35 263.65 -1285.25 3685.25 2136.35 3693.36 2153.1"/><polygon class="cls-3" points="3711.27 2135.19 3693.28 2126.5 273.51 -1293.26 264.81 -1311.26 281.56 -1303.16 3703.16 2118.43 3711.27 2135.19"/><polygon class="cls-3" points="3729.18 2117.28 3711.19 2108.59 291.42 -1311.17 282.72 -1329.17 299.47 -1321.07 3721.07 2100.52 3729.18 2117.28"/><polygon class="cls-3" points="3747.09 2099.37 3729.1 2090.67 309.33 -1329.09 300.63 -1347.08 317.38 -1338.99 3738.98 2082.61 3747.09 2099.37"/><polygon class="cls-3" points="3765 2081.46 3747.01 2072.76 327.24 -1347 318.54 -1364.99 335.29 -1356.9 3756.89 2064.7 3765 2081.46"/><polygon class="cls-3" points="3782.91 2063.55 3764.92 2054.85 345.15 -1364.91 336.45 -1382.9 353.2 -1374.81 3774.8 2046.79 3782.91 2063.55"/><polygon class="cls-3" points="3800.82 2045.63 3782.83 2036.94 363.06 -1382.82 354.36 -1400.82 371.11 -1392.72 3792.71 2028.88 3800.82 2045.63"/><polygon class="cls-3" points="3818.73 2027.72 3800.74 2019.03 380.97 -1400.73 372.27 -1418.73 389.02 -1410.63 3810.62 2010.97 3818.73 2027.72"/><polygon class="cls-3" points="3836.64 2009.81 3818.65 2001.12 398.88 -1418.64 390.18 -1436.64 406.93 -1428.54 3828.53 1993.05 3836.64 2009.81"/><polygon class="cls-3" points="3854.55 1991.9 3836.56 1983.2 416.79 -1436.56 408.09 -1454.55 424.84 -1446.46 3846.44 1975.14 3854.55 1991.9"/><polygon class="cls-3" points="3872.46 1973.99 3854.47 1965.29 434.7 -1454.47 426 -1472.46 442.75 -1464.37 3864.35 1957.23 3872.46 1973.99"/><polygon class="cls-3" points="3890.37 1956.08 3872.38 1947.38 452.61 -1472.38 443.91 -1490.37 460.66 -1482.28 3882.26 1939.32 3890.37 1956.08"/><polygon class="cls-3" points="3908.28 1938.16 3890.29 1929.47 470.53 -1490.29 461.82 -1508.28 478.57 -1500.19 3900.18 1921.41 3908.28 1938.16"/><polygon class="cls-3" points="3926.19 1920.25 3908.2 1911.56 488.44 -1508.2 479.74 -1526.2 496.48 -1518.1 3918.09 1903.5 3926.19 1920.25"/><polygon class="cls-3" points="3944.1 1902.34 3926.11 1893.65 506.35 -1526.11 497.65 -1544.11 514.39 -1536.01 3936 1885.58 3944.1 1902.34"/><polygon class="cls-3" points="3962.01 1884.43 3944.02 1875.73 524.26 -1544.03 515.56 -1562.02 532.3 -1553.92 3953.91 1867.67 3962.01 1884.43"/><polygon class="cls-3" points="3979.92 1866.52 3961.93 1857.82 542.17 -1561.94 533.47 -1579.93 550.21 -1571.84 3971.82 1849.76 3979.92 1866.52"/><polygon class="cls-3" points="3997.83 1848.61 3979.84 1839.91 560.08 -1579.85 551.38 -1597.84 568.13 -1589.75 3989.73 1831.85 3997.83 1848.61"/><polygon class="cls-3" points="4015.74 1830.69 3997.75 1822 577.99 -1597.76 569.29 -1615.75 586.04 -1607.66 4007.64 1813.94 4015.74 1830.69"/><polygon class="cls-3" points="4033.65 1812.78 4015.66 1804.09 595.9 -1615.67 587.2 -1633.67 603.95 -1625.57 4025.55 1796.03 4033.65 1812.78"/><polygon class="cls-3" points="4051.56 1794.87 4033.57 1786.18 613.81 -1633.58 605.11 -1651.58 621.86 -1643.48 4043.46 1778.11 4051.56 1794.87"/><polygon class="cls-3" points="4069.47 1776.96 4051.48 1768.26 631.72 -1651.5 623.02 -1669.49 639.77 -1661.39 4061.37 1760.2 4069.47 1776.96"/><polygon class="cls-3" points="4087.38 1759.05 4069.39 1750.35 649.63 -1669.41 640.93 -1687.4 657.68 -1679.31 4079.28 1742.29 4087.38 1759.05"/><polygon class="cls-3" points="4105.29 1741.14 4087.3 1732.44 667.54 -1687.32 658.84 -1705.31 675.59 -1697.22 4097.19 1724.38 4105.29 1741.14"/><polygon class="cls-3" points="4115.1 1706.47 4123.2 1723.22 4105.21 1714.53 685.45 -1705.23 676.75 -1723.22 693.5 -1715.13 4115.1 1706.47"/></g></g></svg>